<svg xmlns="http://www.w3.org/2000/svg" id="Layer_1" x="0" y="0" version="1.1" viewBox="0 0 256 256" xml:space="preserve">
  <style>
    .st1{fill:#fff}.st2{fill:#06f4e4}
  </style>
  <path fill="#1405ff" d="M0 0h256v256H0z"/>
  <path d="M65 163.9h157.1v24.4H65z" class="st1"/>
  <path d="M43.3 188.4c-6.7 0-12.2-5.5-12.2-12.2v-.3c0-6.7 5.5-12.2 12.2-12.2 6.7 0 12.2 5.5 12.2 12.2v.3c.1 6.7-5.4 12.2-12.2 12.2z" class="st1"/>
  <path d="M173.4 133.5l-6.9 3.1 8.7 8.9-8.8 8.5-8.6-8.8-6 12.5-9.2-24.2H65v24.4h157.2v-24.4z" class="st1"/>
  <path d="M43.3 157.9c-6.7 0-12.2-5.5-12.2-12.2v-.3c0-6.7 5.5-12.2 12.2-12.2 6.7 0 12.2 5.5 12.2 12.2v.3c.1 6.8-5.4 12.2-12.2 12.2z" class="st1"/>
  <path d="M223.4 88.3l-22.5-50.5c-1.2-2.6-4.3-3.8-6.9-2.7l-50.5 22.5c-1.3.6-2.3 1.6-2.8 2.9-.5 1.3-.5 2.7.1 4l17.3 38.8H65v24.4h75.4l-5.5-14.6 36.5 14.6h50.7v-24.4h-19.8l18.4-8.2c1.3-.6 2.3-1.6 2.8-2.9.5-1.2.4-2.6-.1-3.9zm-1 3.6c-.4 1-1.2 1.8-2.2 2.3l-2.3 1-15.6-18-3.9 3.6-7.2-5.6-4.5 24.7-9.1-1.3-5.4 17.1-2.4 1.1c-1 .4-2.1.5-3.1.1s-1.8-1.2-2.3-2.2l-22.5-50.5c-.4-1-.5-2.1-.1-3.1s1.2-1.8 2.2-2.3l50.5-22.5c.5-.2 1.1-.4 1.7-.4 1.6 0 3.1.9 3.8 2.4l22.5 50.5c.3.9.3 2.1-.1 3.1z" class="st1"/>
  <path d="M43.3 128.1c-6.7 0-12.2-5.5-12.2-12.2 0-6.7 5.5-12.2 12.2-12.2 6.7 0 12.2 5.5 12.2 12.2.1 6.8-5.4 12.2-12.2 12.2z" class="st1"/>
  <path d="M173 145.4c-2.2 2.2-4.4 4.3-6.6 6.5-3-3.1-6.1-6.2-9.1-9.3-1.8 3.8-3.6 7.5-5.4 11.3-4.8-12.7-9.6-25.3-14.5-38 12.6 5 25.2 10 37.8 15.1-3.8 1.7-7.6 3.5-11.4 5.2 3.2 3.1 6.2 6.1 9.2 9.2z" class="st2"/>
  <circle cx="166.8" cy="88.5" r="6.5" class="st2"/>
</svg>
